<svg xmlns="http://www.w3.org/2000/svg" xmlns:xlink="http://www.w3.org/1999/xlink" width="503" zoomAndPan="magnify" viewBox="0 0 377.25 116.999995" height="156" preserveAspectRatio="xMidYMid meet" version="1.0"><defs><g/><clipPath id="e4e2e83929"><path d="M 87 12 L 142 12 L 142 68 L 87 68 Z M 87 12 " clip-rule="nonzero"/></clipPath><clipPath id="f3e4f35e25"><path d="M 82.007812 53.203125 L 117.457031 0.371094 L 152.265625 23.726562 L 116.816406 76.558594 Z M 82.007812 53.203125 " clip-rule="nonzero"/></clipPath><clipPath id="f77203782f"><path d="M 82.007812 53.203125 L 117.457031 0.371094 L 152.265625 23.726562 L 116.816406 76.558594 Z M 82.007812 53.203125 " clip-rule="nonzero"/></clipPath><clipPath id="bcc79dd96f"><path d="M 88 13 L 140 13 L 140 66 L 88 66 Z M 88 13 " clip-rule="nonzero"/></clipPath><clipPath id="cc1f070df6"><path d="M 82.007812 53.203125 L 117.457031 0.371094 L 152.265625 23.726562 L 116.816406 76.558594 Z M 82.007812 53.203125 " clip-rule="nonzero"/></clipPath><clipPath id="2dc81a9620"><path d="M 82.007812 53.203125 L 117.457031 0.371094 L 152.265625 23.726562 L 116.816406 76.558594 Z M 82.007812 53.203125 " clip-rule="nonzero"/></clipPath><clipPath id="45a652d9ae"><path d="M 93 53 L 104 53 L 104 58 L 93 58 Z M 93 53 " clip-rule="nonzero"/></clipPath><clipPath id="d3766dd106"><path d="M 82.007812 53.203125 L 117.457031 0.371094 L 152.265625 23.726562 L 116.816406 76.558594 Z M 82.007812 53.203125 " clip-rule="nonzero"/></clipPath><clipPath id="abc76eb695"><path d="M 82.007812 53.203125 L 117.457031 0.371094 L 152.265625 23.726562 L 116.816406 76.558594 Z M 82.007812 53.203125 " clip-rule="nonzero"/></clipPath><clipPath id="f0fa8091b1"><path d="M 108 25 L 119 25 L 119 37 L 108 37 Z M 108 25 " clip-rule="nonzero"/></clipPath><clipPath id="f2c9bc4e9c"><path d="M 82.007812 53.203125 L 117.457031 0.371094 L 152.265625 23.726562 L 116.816406 76.558594 Z M 82.007812 53.203125 " clip-rule="nonzero"/></clipPath><clipPath id="b575f04dc2"><path d="M 82.007812 53.203125 L 117.457031 0.371094 L 152.265625 23.726562 L 116.816406 76.558594 Z M 82.007812 53.203125 " clip-rule="nonzero"/></clipPath><clipPath id="efe0673916"><path d="M 109 22 L 139 22 L 139 49 L 109 49 Z M 109 22 " clip-rule="nonzero"/></clipPath><clipPath id="a3c5046a35"><path d="M 82.007812 53.203125 L 117.457031 0.371094 L 152.265625 23.726562 L 116.816406 76.558594 Z M 82.007812 53.203125 " clip-rule="nonzero"/></clipPath><clipPath id="626d98cfe9"><path d="M 82.007812 53.203125 L 117.457031 0.371094 L 152.265625 23.726562 L 116.816406 76.558594 Z M 82.007812 53.203125 " clip-rule="nonzero"/></clipPath><clipPath id="558eb210ef"><path d="M 101 33 L 115 33 L 115 40 L 101 40 Z M 101 33 " clip-rule="nonzero"/></clipPath><clipPath id="fb6a69d892"><path d="M 82.007812 53.203125 L 117.457031 0.371094 L 152.265625 23.726562 L 116.816406 76.558594 Z M 82.007812 53.203125 " clip-rule="nonzero"/></clipPath><clipPath id="286cfb8567"><path d="M 82.007812 53.203125 L 117.457031 0.371094 L 152.265625 23.726562 L 116.816406 76.558594 Z M 82.007812 53.203125 " clip-rule="nonzero"/></clipPath><clipPath id="6600a95470"><path d="M 129 34 L 133 34 L 133 40 L 129 40 Z M 129 34 " clip-rule="nonzero"/></clipPath><clipPath id="5002ab9209"><path d="M 82.007812 53.203125 L 117.457031 0.371094 L 152.265625 23.726562 L 116.816406 76.558594 Z M 82.007812 53.203125 " clip-rule="nonzero"/></clipPath><clipPath id="710de5d38c"><path d="M 82.007812 53.203125 L 117.457031 0.371094 L 152.265625 23.726562 L 116.816406 76.558594 Z M 82.007812 53.203125 " clip-rule="nonzero"/></clipPath><clipPath id="82bf6de3f9"><path d="M 115 26 L 134 26 L 134 42 L 115 42 Z M 115 26 " clip-rule="nonzero"/></clipPath><clipPath id="7a8a73792e"><path d="M 82.007812 53.203125 L 117.457031 0.371094 L 152.265625 23.726562 L 116.816406 76.558594 Z M 82.007812 53.203125 " clip-rule="nonzero"/></clipPath><clipPath id="43a606a320"><path d="M 82.007812 53.203125 L 117.457031 0.371094 L 152.265625 23.726562 L 116.816406 76.558594 Z M 82.007812 53.203125 " clip-rule="nonzero"/></clipPath><clipPath id="a7a4b0d46b"><path d="M 108 40 L 122 40 L 122 50 L 108 50 Z M 108 40 " clip-rule="nonzero"/></clipPath><clipPath id="1e2d9bff1b"><path d="M 82.007812 53.203125 L 117.457031 0.371094 L 152.265625 23.726562 L 116.816406 76.558594 Z M 82.007812 53.203125 " clip-rule="nonzero"/></clipPath><clipPath id="99c4361bac"><path d="M 82.007812 53.203125 L 117.457031 0.371094 L 152.265625 23.726562 L 116.816406 76.558594 Z M 82.007812 53.203125 " clip-rule="nonzero"/></clipPath><clipPath id="32cfcd684b"><path d="M 99 54 L 106 54 L 106 58 L 99 58 Z M 99 54 " clip-rule="nonzero"/></clipPath><clipPath id="5f75d3299a"><path d="M 82.007812 53.203125 L 117.457031 0.371094 L 152.265625 23.726562 L 116.816406 76.558594 Z M 82.007812 53.203125 " clip-rule="nonzero"/></clipPath><clipPath id="9fdb087284"><path d="M 82.007812 53.203125 L 117.457031 0.371094 L 152.265625 23.726562 L 116.816406 76.558594 Z M 82.007812 53.203125 " clip-rule="nonzero"/></clipPath></defs><g fill="#1b2123" fill-opacity="1"><g transform="translate(106.99712, 81.979397)"><g><path d="M 21.96875 0.578125 C 18.0625 0.578125 14.570312 -0.195312 11.5 -1.75 C 8.425781 -3.3125 6.03125 -5.476562 4.3125 -8.25 C 2.601562 -11.019531 1.75 -14.160156 1.75 -17.671875 C 1.75 -21.179688 2.601562 -24.3125 4.3125 -27.0625 C 6.03125 -29.8125 8.425781 -31.957031 11.5 -33.5 C 14.570312 -35.039062 18.0625 -35.8125 21.96875 -35.8125 C 25.945312 -35.8125 29.390625 -34.953125 32.296875 -33.234375 C 35.203125 -31.523438 37.257812 -29.15625 38.46875 -26.125 L 28.921875 -21.25 C 27.316406 -24.414062 24.976562 -26 21.90625 -26 C 19.6875 -26 17.851562 -25.257812 16.40625 -23.78125 C 14.957031 -22.3125 14.234375 -20.273438 14.234375 -17.671875 C 14.234375 -15.035156 14.957031 -12.96875 16.40625 -11.46875 C 17.851562 -9.976562 19.6875 -9.234375 21.90625 -9.234375 C 24.976562 -9.234375 27.316406 -10.8125 28.921875 -13.96875 L 38.46875 -9.09375 C 37.257812 -6.0625 35.203125 -3.691406 32.296875 -1.984375 C 29.390625 -0.273438 25.945312 0.578125 21.96875 0.578125 Z M 21.96875 0.578125 "/></g></g></g><g fill="#1b2123" fill-opacity="1"><g transform="translate(141.234554, 81.979397)"><g><path d="M 21.640625 0.578125 C 17.867188 0.578125 14.46875 -0.195312 11.4375 -1.75 C 8.40625 -3.3125 6.03125 -5.476562 4.3125 -8.25 C 2.601562 -11.019531 1.75 -14.160156 1.75 -17.671875 C 1.75 -21.140625 2.601562 -24.257812 4.3125 -27.03125 C 6.03125 -29.800781 8.394531 -31.957031 11.40625 -33.5 C 14.414062 -35.039062 17.828125 -35.8125 21.640625 -35.8125 C 25.453125 -35.8125 28.875 -35.039062 31.90625 -33.5 C 34.9375 -31.957031 37.296875 -29.8125 38.984375 -27.0625 C 40.679688 -24.3125 41.53125 -21.179688 41.53125 -17.671875 C 41.53125 -14.160156 40.679688 -11.019531 38.984375 -8.25 C 37.296875 -5.476562 34.9375 -3.3125 31.90625 -1.75 C 28.875 -0.195312 25.453125 0.578125 21.640625 0.578125 Z M 21.640625 -9.234375 C 23.804688 -9.234375 25.582031 -9.976562 26.96875 -11.46875 C 28.351562 -12.96875 29.046875 -15.035156 29.046875 -17.671875 C 29.046875 -20.273438 28.351562 -22.3125 26.96875 -23.78125 C 25.582031 -25.257812 23.804688 -26 21.640625 -26 C 19.472656 -26 17.695312 -25.257812 16.3125 -23.78125 C 14.925781 -22.3125 14.234375 -20.273438 14.234375 -17.671875 C 14.234375 -15.035156 14.925781 -12.96875 16.3125 -11.46875 C 17.695312 -9.976562 19.472656 -9.234375 21.640625 -9.234375 Z M 21.640625 -9.234375 "/></g></g></g><g fill="#1b2123" fill-opacity="1"><g transform="translate(179.565001, 81.979397)"><g><path d="M 49.84375 -35.8125 C 54.175781 -35.8125 57.628906 -34.507812 60.203125 -31.90625 C 62.785156 -29.3125 64.078125 -25.390625 64.078125 -20.140625 L 64.078125 0 L 51.734375 0 L 51.734375 -18.125 C 51.734375 -20.59375 51.265625 -22.410156 50.328125 -23.578125 C 49.398438 -24.753906 48.09375 -25.34375 46.40625 -25.34375 C 44.539062 -25.34375 43.039062 -24.691406 41.90625 -23.390625 C 40.78125 -22.085938 40.21875 -20.117188 40.21875 -17.484375 L 40.21875 0 L 27.875 0 L 27.875 -18.125 C 27.875 -22.9375 26.097656 -25.34375 22.546875 -25.34375 C 20.640625 -25.34375 19.125 -24.691406 18 -23.390625 C 16.875 -22.085938 16.3125 -20.117188 16.3125 -17.484375 L 16.3125 0 L 3.96875 0 L 3.96875 -35.21875 L 15.71875 -35.21875 L 15.71875 -31.515625 C 17.019531 -32.941406 18.566406 -34.015625 20.359375 -34.734375 C 22.160156 -35.453125 24.125 -35.8125 26.25 -35.8125 C 28.71875 -35.8125 30.925781 -35.351562 32.875 -34.4375 C 34.832031 -33.53125 36.414062 -32.144531 37.625 -30.28125 C 39.007812 -32.0625 40.765625 -33.425781 42.890625 -34.375 C 45.015625 -35.332031 47.332031 -35.8125 49.84375 -35.8125 Z M 49.84375 -35.8125 "/></g></g></g><g fill="#1b2123" fill-opacity="1"><g transform="translate(242.518474, 81.979397)"><g><path d="M 49.84375 -35.8125 C 54.175781 -35.8125 57.628906 -34.507812 60.203125 -31.90625 C 62.785156 -29.3125 64.078125 -25.390625 64.078125 -20.140625 L 64.078125 0 L 51.734375 0 L 51.734375 -18.125 C 51.734375 -20.59375 51.265625 -22.410156 50.328125 -23.578125 C 49.398438 -24.753906 48.09375 -25.34375 46.40625 -25.34375 C 44.539062 -25.34375 43.039062 -24.691406 41.90625 -23.390625 C 40.78125 -22.085938 40.21875 -20.117188 40.21875 -17.484375 L 40.21875 0 L 27.875 0 L 27.875 -18.125 C 27.875 -22.9375 26.097656 -25.34375 22.546875 -25.34375 C 20.640625 -25.34375 19.125 -24.691406 18 -23.390625 C 16.875 -22.085938 16.3125 -20.117188 16.3125 -17.484375 L 16.3125 0 L 3.96875 0 L 3.96875 -35.21875 L 15.71875 -35.21875 L 15.71875 -31.515625 C 17.019531 -32.941406 18.566406 -34.015625 20.359375 -34.734375 C 22.160156 -35.453125 24.125 -35.8125 26.25 -35.8125 C 28.71875 -35.8125 30.925781 -35.351562 32.875 -34.4375 C 34.832031 -33.53125 36.414062 -32.144531 37.625 -30.28125 C 39.007812 -32.0625 40.765625 -33.425781 42.890625 -34.375 C 45.015625 -35.332031 47.332031 -35.8125 49.84375 -35.8125 Z M 49.84375 -35.8125 "/></g></g></g><g fill="#1b2123" fill-opacity="1"><g transform="translate(305.471959, 81.979397)"><g><path d="M 3.96875 -35.21875 L 16.3125 -35.21875 L 16.3125 0 L 3.96875 0 Z M 10.140625 -39.125 C 7.890625 -39.125 6.070312 -39.75 4.6875 -41 C 3.300781 -42.257812 2.609375 -43.820312 2.609375 -45.6875 C 2.609375 -47.550781 3.300781 -49.109375 4.6875 -50.359375 C 6.070312 -51.617188 7.890625 -52.25 10.140625 -52.25 C 12.398438 -52.25 14.222656 -51.648438 15.609375 -50.453125 C 16.992188 -49.265625 17.6875 -47.738281 17.6875 -45.875 C 17.6875 -43.925781 16.992188 -42.3125 15.609375 -41.03125 C 14.222656 -39.757812 12.398438 -39.125 10.140625 -39.125 Z M 10.140625 -39.125 "/></g></g></g><g fill="#1b2123" fill-opacity="1"><g transform="translate(320.868557, 81.979397)"><g><path d="M 16.765625 0.578125 C 13.816406 0.578125 10.910156 0.242188 8.046875 -0.421875 C 5.191406 -1.085938 2.898438 -1.960938 1.171875 -3.046875 L 4.875 -11.5 C 6.476562 -10.5 8.382812 -9.707031 10.59375 -9.125 C 12.800781 -8.539062 14.988281 -8.25 17.15625 -8.25 C 19.144531 -8.25 20.5625 -8.453125 21.40625 -8.859375 C 22.25 -9.273438 22.671875 -9.875 22.671875 -10.65625 C 22.671875 -11.4375 22.160156 -11.988281 21.140625 -12.3125 C 20.128906 -12.632812 18.519531 -12.945312 16.3125 -13.25 C 13.5 -13.601562 11.101562 -14.0625 9.125 -14.625 C 7.15625 -15.1875 5.457031 -16.222656 4.03125 -17.734375 C 2.601562 -19.253906 1.890625 -21.378906 1.890625 -24.109375 C 1.890625 -26.359375 2.554688 -28.359375 3.890625 -30.109375 C 5.234375 -31.867188 7.191406 -33.257812 9.765625 -34.28125 C 12.347656 -35.300781 15.441406 -35.8125 19.046875 -35.8125 C 21.597656 -35.8125 24.128906 -35.550781 26.640625 -35.03125 C 29.148438 -34.507812 31.253906 -33.769531 32.953125 -32.8125 L 29.25 -24.4375 C 26.125 -26.164062 22.742188 -27.03125 19.109375 -27.03125 C 17.160156 -27.03125 15.726562 -26.800781 14.8125 -26.34375 C 13.90625 -25.894531 13.453125 -25.300781 13.453125 -24.5625 C 13.453125 -23.738281 13.945312 -23.164062 14.9375 -22.84375 C 15.9375 -22.519531 17.585938 -22.179688 19.890625 -21.828125 C 22.785156 -21.398438 25.1875 -20.90625 27.09375 -20.34375 C 29 -19.78125 30.65625 -18.75 32.0625 -17.25 C 33.476562 -15.757812 34.1875 -13.671875 34.1875 -10.984375 C 34.1875 -8.773438 33.515625 -6.789062 32.171875 -5.03125 C 30.828125 -3.28125 28.84375 -1.90625 26.21875 -0.90625 C 23.601562 0.0820312 20.453125 0.578125 16.765625 0.578125 Z M 16.765625 0.578125 "/></g></g></g><g clip-path="url(#e4e2e83929)"><g clip-path="url(#f3e4f35e25)"><g clip-path="url(#f77203782f)"><path fill="#1b2123" d="M 136.976562 45.566406 C 130.253906 48.347656 123.34375 52.792969 117.515625 58.089844 C 114.617188 60.722656 112.054688 63.5 109.902344 66.335938 L 108.804688 67.785156 L 104.230469 57.542969 C 102.207031 58.902344 97.761719 61.261719 93.023438 59.777344 C 90.726562 59.054688 89.199219 57.894531 88.351562 56.21875 C 87.238281 54.027344 85.746094 47.671875 91.78125 42.644531 C 96.195312 38.636719 103.1875 37.707031 104.640625 37.550781 C 105.117188 37.253906 105.550781 36.929688 105.957031 36.558594 C 107.585938 35.078125 108.558594 33.082031 109.6875 30.773438 C 111.292969 27.480469 113.296875 23.378906 118.046875 19.058594 C 118.632812 18.527344 119.253906 17.996094 119.898438 17.480469 C 125.519531 12.976562 130.011719 11.351562 133.632812 12.507812 C 135.238281 13.023438 139.402344 15.851562 140.886719 21.207031 C 141.742188 24.042969 140.835938 27.050781 139.222656 30.070312 C 138.464844 31.492188 136.996094 33.699219 134.328125 36.125 C 133.59375 36.789062 132.9375 37.320312 132.441406 37.703125 L 138.289062 45.023438 Z M 136.976562 45.566406 " fill-opacity="1" fill-rule="nonzero"/></g></g></g><g clip-path="url(#bcc79dd96f)"><g clip-path="url(#cc1f070df6)"><g clip-path="url(#2dc81a9620)"><path fill="#ffffff" d="M 139.332031 21.550781 C 140.261719 24.628906 139.441406 27.546875 138.003906 30.023438 C 135.433594 34.464844 130.890625 37.484375 130.890625 37.484375 L 136.550781 44.566406 C 133.953125 45.644531 131.328125 46.957031 128.753906 48.472656 C 121.238281 52.886719 114.113281 58.984375 109.039062 65.675781 L 104.664062 55.871094 C 104.664062 55.871094 99.152344 60.570312 93.335938 58.746094 C 89.640625 57.585938 87.476562 53.710938 89.347656 47.761719 C 92.105469 39.871094 105.003906 38.605469 105.003906 38.605469 C 111.429688 34.796875 109.714844 27.039062 120.582031 18.332031 C 131.40625 9.652344 136.746094 12.945312 139.332031 21.550781 Z M 139.332031 21.550781 " fill-opacity="1" fill-rule="nonzero"/></g></g></g><g clip-path="url(#45a652d9ae)"><g clip-path="url(#d3766dd106)"><g clip-path="url(#abc76eb695)"><path fill="#ffffff" d="M 103.996094 56.046875 C 103.996094 56.046875 99.601562 58.242188 97.003906 57.972656 C 94.347656 57.695312 93.304688 56.484375 93.816406 56.4375 C 94.332031 56.394531 96.855469 57.191406 98 56.011719 C 99.148438 54.828125 96.183594 54.007812 97.589844 53.574219 C 98.996094 53.140625 101.027344 53.542969 102.316406 54.199219 C 103.605469 54.855469 103.996094 56.046875 103.996094 56.046875 Z M 103.996094 56.046875 " fill-opacity="1" fill-rule="nonzero"/></g></g></g><g clip-path="url(#f0fa8091b1)"><g clip-path="url(#f2c9bc4e9c)"><g clip-path="url(#b575f04dc2)"><path fill="#ffffff" d="M 108.664062 36.644531 C 108.664062 36.644531 111.492188 34.6875 113.40625 30.890625 C 115.320312 27.089844 117.097656 24.742188 117.902344 25.625 C 118.710938 26.511719 118.769531 28.8125 115.796875 32.246094 C 112.828125 35.679688 108.664062 36.644531 108.664062 36.644531 Z M 108.664062 36.644531 " fill-opacity="1" fill-rule="nonzero"/></g></g></g><g clip-path="url(#efe0673916)"><g clip-path="url(#a3c5046a35)"><g clip-path="url(#626d98cfe9)"><path fill="#ffffff" d="M 138.5625 26.226562 C 138.550781 26.308594 138.25 28.5625 138.003906 30.027344 C 135.433594 34.464844 130.890625 37.484375 130.890625 37.484375 L 136.550781 44.566406 C 133.953125 45.644531 131.328125 46.957031 128.753906 48.472656 C 129.171875 47.613281 129.28125 46.523438 128.660156 45.191406 C 126.820312 41.246094 124.835938 39.488281 124.835938 39.488281 C 124.835938 39.488281 122.558594 44.722656 119.382812 46.816406 C 116.230469 48.894531 109.34375 48.125 109.234375 48.113281 C 109.296875 48.082031 112.515625 46.320312 114.007812 44.769531 C 115.511719 43.203125 115.511719 43.203125 115.511719 43.203125 C 113.046875 42.25 110.769531 41.28125 112.144531 39.925781 C 112.144531 39.925781 119.933594 40.972656 126.121094 33.167969 C 132.3125 25.363281 130.082031 22.046875 133.039062 22.722656 C 136 23.402344 134.363281 30.632812 136.050781 29.691406 C 137.707031 28.769531 138.535156 26.3125 138.5625 26.226562 Z M 138.5625 26.226562 " fill-opacity="1" fill-rule="nonzero"/></g></g></g><g clip-path="url(#558eb210ef)"><g clip-path="url(#fb6a69d892)"><g clip-path="url(#286cfb8567)"><path fill="#1b2123" d="M 101.3125 39.148438 C 101.3125 39.148438 105.644531 38.988281 109.039062 37.710938 C 112.433594 36.433594 114.011719 33.59375 114.011719 33.59375 C 114.011719 33.59375 111 35.730469 108.664062 36.648438 C 106.328125 37.5625 105.800781 37.640625 105.800781 37.640625 Z M 101.3125 39.148438 " fill-opacity="1" fill-rule="nonzero"/></g></g></g><g clip-path="url(#6600a95470)"><g clip-path="url(#5002ab9209)"><g clip-path="url(#710de5d38c)"><path fill="#1b2123" d="M 129.117188 34.417969 C 129.203125 35.117188 130.882812 37.429688 132.210938 39.125 L 132.4375 37.703125 C 131.441406 36.515625 130.617188 35.441406 129.9375 34.464844 Z M 129.117188 34.417969 " fill-opacity="1" fill-rule="nonzero"/></g></g></g><g clip-path="url(#82bf6de3f9)"><g clip-path="url(#7a8a73792e)"><g clip-path="url(#43a606a320)"><path fill="#1b2123" d="M 133.394531 26.25 C 133.394531 26.25 133.5625 30.742188 127.355469 35.71875 C 121.148438 40.699219 115.878906 41.503906 115.878906 41.503906 C 115.878906 41.503906 121.359375 41.6875 127.363281 37.503906 C 131.074219 34.789062 130.089844 35.503906 131.90625 33.027344 C 133.722656 30.554688 133.394531 26.25 133.394531 26.25 Z M 133.394531 26.25 " fill-opacity="1" fill-rule="nonzero"/></g></g></g><g clip-path="url(#a7a4b0d46b)"><g clip-path="url(#1e2d9bff1b)"><g clip-path="url(#99c4361bac)"><path fill="#1b2123" d="M 119.195312 40.835938 C 117.921875 44.4375 113.5625 48.113281 108.871094 49.058594 C 108.871094 49.058594 110.71875 49.671875 114.804688 47.59375 C 118.894531 45.519531 121.242188 40.109375 121.242188 40.109375 Z M 119.195312 40.835938 " fill-opacity="1" fill-rule="nonzero"/></g></g></g><g clip-path="url(#32cfcd684b)"><g clip-path="url(#5f75d3299a)"><g clip-path="url(#9fdb087284)"><path fill="#1b2123" d="M 105.121094 57.195312 C 105.070312 56.878906 104.859375 55.863281 104.199219 55.136719 C 103.539062 54.410156 99.789062 54.078125 99.789062 54.078125 C 99.789062 54.078125 102.261719 54.964844 103.050781 55.574219 C 103.84375 56.183594 104.230469 57.542969 104.230469 57.542969 Z M 105.121094 57.195312 " fill-opacity="1" fill-rule="nonzero"/></g></g></g><g fill="#1b2123" fill-opacity="1"><g transform="translate(24.775029, 81.979397)"><g><path d="M 3.96875 -48.21875 L 16.3125 -48.21875 L 16.3125 0 L 3.96875 0 Z M 3.96875 -48.21875 "/></g></g></g><g fill="#1b2123" fill-opacity="1"><g transform="translate(40.17163, 81.979397)"><g><path d="M 39.96875 -17.546875 C 39.96875 -17.460938 39.898438 -16.441406 39.765625 -14.484375 L 14.171875 -14.484375 C 14.691406 -12.671875 15.695312 -11.273438 17.1875 -10.296875 C 18.6875 -9.328125 20.5625 -8.84375 22.8125 -8.84375 C 24.5 -8.84375 25.957031 -9.078125 27.1875 -9.546875 C 28.425781 -10.023438 29.675781 -10.804688 30.9375 -11.890625 L 37.4375 -5.140625 C 34.007812 -1.328125 29.003906 0.578125 22.421875 0.578125 C 18.304688 0.578125 14.6875 -0.195312 11.5625 -1.75 C 8.445312 -3.3125 6.03125 -5.476562 4.3125 -8.25 C 2.601562 -11.019531 1.75 -14.160156 1.75 -17.671875 C 1.75 -21.140625 2.582031 -24.25 4.25 -27 C 5.925781 -29.75 8.234375 -31.90625 11.171875 -33.46875 C 14.117188 -35.03125 17.4375 -35.8125 21.125 -35.8125 C 24.632812 -35.8125 27.816406 -35.082031 30.671875 -33.625 C 33.535156 -32.175781 35.800781 -30.078125 37.46875 -27.328125 C 39.132812 -24.578125 39.96875 -21.316406 39.96875 -17.546875 Z M 21.1875 -27.03125 C 19.28125 -27.03125 17.6875 -26.488281 16.40625 -25.40625 C 15.125 -24.320312 14.3125 -22.847656 13.96875 -20.984375 L 28.390625 -20.984375 C 28.046875 -22.847656 27.234375 -24.320312 25.953125 -25.40625 C 24.679688 -26.488281 23.09375 -27.03125 21.1875 -27.03125 Z M 21.1875 -27.03125 "/></g></g></g></svg>